<svg width="405" height="37" viewBox="0 0 405 37" fill="none" xmlns="http://www.w3.org/2000/svg">
<path d="M397.483 30.8745C397.483 30.3633 397.133 29.8521 396.433 29.3409C395.734 28.8028 394.657 28.1301 393.205 27.323C391.779 26.5158 390.635 25.8297 389.774 25.2647C388.913 24.6728 388.16 24.0136 387.514 23.2871C386.895 22.5338 386.586 21.7266 386.586 20.8657C386.586 19.8971 387.043 18.8612 387.958 17.7581C388.9 16.6549 390.043 15.7267 391.388 14.9734C392.734 14.22 393.971 13.8433 395.101 13.8433C396.474 13.8433 398.074 14.0048 399.904 14.3276C401.76 14.6236 403.106 14.9599 403.94 15.3366V22.0764H401.397C400.671 20.7311 399.796 19.6818 398.774 18.9285C397.778 18.1751 396.743 17.7984 395.666 17.7984C395.128 17.7984 394.698 17.9599 394.375 18.2827C394.052 18.5787 393.891 18.9419 393.891 19.3724C393.891 19.9374 394.24 20.489 394.94 21.0271C395.666 21.5652 396.81 22.2782 398.37 23.1661C400.442 24.2961 402.03 25.3185 403.133 26.2333C404.263 27.1481 404.828 28.1974 404.828 29.3812C404.828 30.3767 404.343 31.4261 403.375 32.5292C402.433 33.6054 401.263 34.5202 399.864 35.2735C398.491 36.0269 397.227 36.4036 396.07 36.4036C394.59 36.4036 392.828 36.2556 390.783 35.9596C388.765 35.6368 387.326 35.287 386.465 34.9103V27.9283H389.007C389.814 29.3543 390.81 30.4709 391.994 31.2781C393.178 32.0583 394.348 32.4485 395.505 32.4485C396.097 32.4485 396.568 32.3005 396.918 32.0045C397.294 31.6817 397.483 31.305 397.483 30.8745Z" fill="white"/>
<path d="M378.167 30.8745C378.167 30.3633 377.818 29.8521 377.118 29.3409C376.418 28.8028 375.342 28.1301 373.889 27.323C372.463 26.5158 371.32 25.8297 370.459 25.2647C369.598 24.6728 368.845 24.0136 368.199 23.2871C367.58 22.5338 367.271 21.7266 367.271 20.8657C367.271 19.8971 367.728 18.8612 368.643 17.7581C369.584 16.6549 370.728 15.7267 372.073 14.9734C373.419 14.22 374.656 13.8433 375.786 13.8433C377.158 13.8433 378.759 14.0048 380.589 14.3276C382.445 14.6236 383.791 14.9599 384.625 15.3366V22.0764H382.082C381.356 20.7311 380.481 19.6818 379.459 18.9285C378.463 18.1751 377.427 17.7984 376.351 17.7984C375.813 17.7984 375.383 17.9599 375.06 18.2827C374.737 18.5787 374.575 18.9419 374.575 19.3724C374.575 19.9374 374.925 20.489 375.625 21.0271C376.351 21.5652 377.495 22.2782 379.055 23.1661C381.127 24.2961 382.714 25.3185 383.818 26.2333C384.948 27.1481 385.513 28.1974 385.513 29.3812C385.513 30.3767 385.028 31.4261 384.06 32.5292C383.118 33.6054 381.948 34.5202 380.548 35.2735C379.176 36.0269 377.912 36.4036 376.755 36.4036C375.275 36.4036 373.513 36.2556 371.468 35.9596C369.45 35.6368 368.011 35.287 367.15 34.9103V27.9283H369.692C370.499 29.3543 371.495 30.4709 372.679 31.2781C373.862 32.0583 375.033 32.4485 376.19 32.4485C376.782 32.4485 377.253 32.3005 377.602 32.0045C377.979 31.6817 378.167 31.305 378.167 30.8745Z" fill="white"/>
<path d="M356.772 13.8433C359.597 13.8433 361.777 14.9195 363.31 17.072C364.871 19.2244 365.624 22.2109 365.57 26.0315H351.041C351.31 27.6727 351.889 28.9911 352.777 29.9866C353.665 30.9552 354.821 31.4395 356.247 31.4395C358.131 31.4395 360.835 30.4978 364.359 28.6144L365.57 30.9148L359.436 35.7982C357.848 36.2018 356.005 36.4036 353.907 36.4036C351.943 36.4036 350.167 35.9462 348.579 35.0314C347.019 34.0897 345.795 32.8117 344.907 31.1974C344.046 29.583 343.615 27.7938 343.615 25.8297C343.615 23.7042 344.301 21.7266 345.674 19.8971C347.046 18.0406 348.754 16.5742 350.799 15.498C352.871 14.3949 354.862 13.8433 356.772 13.8433ZM354.552 18.5249C353.369 18.5249 352.481 18.9285 351.889 19.7356C351.297 20.5159 350.974 21.7266 350.92 23.3679H358.629C358.413 21.6997 358.01 20.4755 357.418 19.6953C356.853 18.915 355.884 18.5249 354.512 18.5249H354.552Z" fill="white"/>
<path d="M342.918 36H333.757V23.0854C333.757 21.8208 333.555 20.9329 333.151 20.4217C332.775 19.8836 332.102 19.6146 331.133 19.6146C329.707 19.6146 328.295 20.0719 326.896 20.9867V32.166L330.528 33.3767L329.196 36H316.443V33.7399L320.035 30.7131V21.5517L316.443 19.2917V17.0316L324.837 13.4801L326.411 18.1617L331.416 14.1662C332.142 13.951 332.963 13.8433 333.878 13.8433C335.923 13.8433 337.55 14.4083 338.761 15.5384C339.999 16.6415 340.618 18.1482 340.618 20.0585V32.166L344.25 33.3767L342.918 36Z" fill="white"/>
<path d="M303.351 33.3767L302.019 36H289.266V33.7399L292.858 30.7131V8.63712L289.266 6.25599V3.99593L297.176 0.767273H299.719V32.166L303.351 33.3767ZM316.225 35.9596H307.871L301.293 25.1436L308.396 19.4935L303.472 16.8298L304.763 14.2066H316.427V16.4666L308.073 23.3275L313.521 31.8027L317.517 33.3363L316.225 35.9596Z" fill="white"/>
<path d="M283.683 19.5742C282.714 19.5742 281.746 20.0047 280.777 20.8657V31.7624L286.911 33.3767L285.62 36H270.324V33.7399L273.916 30.7131V21.5517L270.324 19.2917V17.0316L278.719 13.4801L280.252 17.9599L283.925 14.1662C284.49 13.951 285.149 13.8433 285.902 13.8433C287.302 13.8433 288.499 14.1662 289.494 14.8119C290.517 15.4577 291.23 16.3455 291.633 17.4756L287.759 22.3186H285.216C285.189 21.35 285.055 20.6639 284.813 20.2603C284.571 19.8298 284.194 19.6146 283.683 19.6146V19.5742Z" fill="white"/>
<path d="M270 36H260.798V32.4888L256.238 36.0807C255.7 36.2959 255.027 36.4036 254.22 36.4036C251.637 36.4036 249.767 35.7713 248.61 34.5067C247.48 33.2422 246.915 31.722 246.915 29.9463C246.915 28.8969 247.238 27.8745 247.884 26.879C248.529 25.8566 249.457 24.9149 250.668 24.054H260.798V23.3679C260.798 21.8881 260.395 20.7984 259.587 20.0988C258.78 19.3993 257.704 19.0495 256.359 19.0495C254.475 19.0495 252.014 19.7894 248.973 21.2692L247.762 18.9688L253.372 14.4487C254.744 14.0451 256.345 13.8433 258.175 13.8433C261.188 13.8433 263.516 14.5294 265.157 15.9016C266.825 17.2738 267.659 19.2648 267.659 21.8746V31.9642L271.291 33.3767L270 36ZM256.278 30.9956C257.65 30.9956 259.157 30.4305 260.798 29.3005V26.7176H254.3C254.085 27.0405 253.924 27.3499 253.816 27.6458C253.735 27.9149 253.695 28.2243 253.695 28.5741C253.695 29.2467 253.924 29.8117 254.381 30.2691C254.865 30.7265 255.498 30.9552 256.278 30.9552V30.9956Z" fill="white"/>
<path d="M230.573 3.87488C233.586 3.87488 236.25 4.54752 238.564 5.89279C240.905 7.21116 242.707 9.05419 243.972 11.4219C245.263 13.7895 245.909 16.4666 245.909 19.4531C245.909 22.5204 244.94 25.3589 243.003 27.9687C241.093 30.5517 238.712 32.6099 235.86 34.1435C233.008 35.6502 230.29 36.4036 227.708 36.4036C226.47 36.4036 225.246 36.3363 224.035 36.2018C222.017 36.0673 220.47 36 219.394 36H213.017V33.74L216.811 30.7534V8.27393L212.331 6.90175L213.663 4.27847H219.353C221.829 4.27847 224.25 4.19775 226.618 4.03631C228.447 3.92869 229.766 3.87488 230.573 3.87488ZM228.878 32.6503C230.573 32.6503 232.107 32.166 233.479 31.1974C234.878 30.2288 235.968 28.8835 236.748 27.1616C237.555 25.4396 237.959 23.5024 237.959 21.35C237.959 18.7671 237.568 16.4397 236.788 14.368C236.035 12.2694 234.864 10.6012 233.277 9.3636C231.716 8.09904 229.779 7.46676 227.465 7.46676C226.255 7.46676 225.138 7.78963 224.116 8.43536V31.8835C225.488 32.3947 227.062 32.6503 228.838 32.6503H228.878Z" fill="white"/>
<path d="M206.595 14.0699C207.175 14.0699 207.837 14.1445 208.582 14.2935C209.327 14.4425 209.865 14.6081 210.196 14.7902V19.2358H208.632C208.234 18.5073 207.738 17.9361 207.141 17.5221C206.562 17.0916 205.974 16.8764 205.378 16.8764C204.766 16.8764 204.294 17.133 203.962 17.6463C203.648 18.1596 203.491 18.9047 203.491 19.8815V23.3585H207.663V24.9977H203.491V33.3922L207.266 34.3856L206.471 36H197.058V34.6092L199.269 32.7465V24.9977H196.611V23.3585H199.269V21.4462C199.269 20.1382 199.649 18.9212 200.411 17.7953C201.173 16.6529 202.125 15.7505 203.267 15.0882C204.426 14.4094 205.535 14.0699 206.595 14.0699Z" fill="white"/>
<path d="M190.755 22.3651C191.98 22.3651 193.073 22.6549 194.033 23.2344C194.993 23.7973 195.738 24.5755 196.268 25.5689C196.815 26.5624 197.088 27.6634 197.088 28.8721C197.088 30.1801 196.666 31.4054 195.821 32.5478C194.977 33.6737 193.917 34.5761 192.642 35.2549C191.384 35.9172 190.167 36.2483 188.991 36.2483C187.783 36.2483 186.69 35.9669 185.713 35.4039C184.753 34.8244 183.999 34.038 183.453 33.0445C182.923 32.0511 182.658 30.95 182.658 29.7414C182.658 28.4333 183.08 27.2164 183.925 26.0905C184.769 24.948 185.821 24.0457 187.079 23.3834C188.354 22.7045 189.579 22.3651 190.755 22.3651ZM189.314 25.2461C188.619 25.2461 188.089 25.5275 187.725 26.0905C187.377 26.6369 187.203 27.4565 187.203 28.5492C187.203 29.94 187.485 31.099 188.048 32.0262C188.611 32.9369 189.405 33.3922 190.432 33.3922C191.111 33.3922 191.624 33.1107 191.972 32.5478C192.336 31.9683 192.518 31.1322 192.518 30.0394C192.518 28.6486 192.237 27.5061 191.674 26.612C191.111 25.7014 190.324 25.2461 189.314 25.2461Z" fill="white"/>
<path d="M174.568 36H165.407V33.0135L161.532 36.0807C160.671 36.296 159.676 36.4036 158.546 36.4036C156.77 36.4036 155.169 35.9462 153.743 35.0314C152.344 34.0897 151.241 32.8117 150.434 31.1974C149.654 29.583 149.264 27.7938 149.264 25.8297C149.264 23.7042 149.95 21.7266 151.322 19.8971C152.694 18.0406 154.402 16.5742 156.447 15.498C158.519 14.3949 160.51 13.8433 162.42 13.8433C163.497 13.8433 164.492 14.1124 165.407 14.6505V8.63712L161.815 6.25599V3.99593L169.725 0.767273H172.268V32.166L175.9 33.3767L174.568 36ZM161.008 30.9956C162.595 30.9956 164.062 30.6054 165.407 29.8252V22.1168C165.245 21.0675 164.707 20.2065 163.793 19.5338C162.878 18.8612 161.64 18.5249 160.08 18.5249C157.712 18.5249 156.528 20.3276 156.528 23.9329C156.528 25.9777 156.905 27.6727 157.658 29.018C158.438 30.3364 159.555 30.9956 161.008 30.9956Z" fill="white"/>
<path d="M148.186 36H135.433V33.7399L139.025 30.7131V8.63712L135.433 6.25599V3.99593L143.343 0.767273H145.886V32.166L149.518 33.3767L148.186 36Z" fill="white"/>
<path d="M129.85 19.5742C128.881 19.5742 127.913 20.0047 126.944 20.8657V31.7624L133.079 33.3767L131.787 36H116.491V33.7399L120.083 30.7131V21.5517L116.491 19.2917V17.0316L124.886 13.4801L126.42 17.9599L130.092 14.1662C130.657 13.951 131.316 13.8433 132.07 13.8433C133.469 13.8433 134.666 14.1662 135.662 14.8119C136.684 15.4577 137.397 16.3455 137.801 17.4756L133.926 22.3186H131.384C131.357 21.35 131.222 20.6639 130.98 20.2603C130.738 19.8298 130.361 19.6146 129.85 19.6146V19.5742Z" fill="white"/>
<path d="M105.381 13.8433C107.372 13.8433 109.148 14.3142 110.709 15.2559C112.269 16.1706 113.48 17.4352 114.341 19.0495C115.229 20.6639 115.673 22.4531 115.673 24.4172C115.673 26.5427 114.987 28.5337 113.614 30.3902C112.242 32.2198 110.52 33.6861 108.448 34.7892C106.404 35.8655 104.426 36.4036 102.516 36.4036C100.552 36.4036 98.776 35.9462 97.1885 35.0314C95.628 34.0897 94.4038 32.8117 93.516 31.1974C92.655 29.583 92.2245 27.7938 92.2245 25.8297C92.2245 23.7042 92.9106 21.7266 94.2828 19.8971C95.6549 18.0406 97.3634 16.5742 99.4082 15.498C101.48 14.3949 103.471 13.8433 105.381 13.8433ZM103.04 18.5249C101.91 18.5249 101.049 18.9823 100.458 19.8971C99.8925 20.7849 99.61 22.1168 99.61 23.8925C99.61 26.1526 100.067 28.036 100.982 29.5427C101.897 31.0225 103.188 31.7624 104.857 31.7624C105.96 31.7624 106.794 31.305 107.359 30.3902C107.951 29.4485 108.247 28.0898 108.247 26.314C108.247 24.054 107.789 22.1975 106.875 20.7446C105.96 19.2648 104.682 18.5249 103.04 18.5249Z" fill="white"/>
<path d="M93.5594 9.60574L84.5595 34.6682L77.6179 36.7265L71.8871 20.5025L67.3669 34.6682L60.385 36.7265L49.69 8.83894L45.6946 6.86138L46.986 4.2381H60.0621V6.49816L57.237 8.59679L65.2683 29.9463L69.9902 15.2155L67.7302 8.83894L64.0576 6.90174L65.349 4.27846H79.4744V6.53852L75.4386 9.04073L82.582 29.9866L89.6447 9.88825L83.2681 6.90174L84.5999 4.27846H97.5952L97.6356 6.49816L93.5594 9.60574Z" fill="white"/>
<path d="M36.0507 22.3651C37.7892 22.3651 39.1303 23.0274 40.0741 24.352C41.0344 25.6766 41.498 27.5144 41.4649 29.8655H32.524C32.6896 30.8755 33.0456 31.6868 33.592 32.2994C34.1383 32.8955 34.8503 33.1935 35.7278 33.1935C36.8868 33.1935 38.5508 32.614 40.7198 31.455L41.4649 32.8707L37.6899 35.8758C36.713 36.1242 35.5788 36.2483 34.2874 36.2483C33.0787 36.2483 31.9859 35.9669 31.009 35.4039C30.0487 34.8244 29.2954 34.038 28.749 33.0445C28.2191 32.0511 27.9542 30.95 27.9542 29.7414C27.9542 28.4333 28.3764 27.2164 29.2208 26.0905C30.0653 24.948 31.1167 24.0457 32.375 23.3834C33.6499 22.7045 34.8751 22.3651 36.0507 22.3651ZM34.6847 25.2461C33.9562 25.2461 33.4098 25.4944 33.0456 25.9911C32.6813 26.4713 32.4826 27.2164 32.4495 28.2264H37.1931C37.0607 27.1998 36.8123 26.4465 36.4481 25.9663C36.1004 25.4861 35.5043 25.2461 34.6599 25.2461H34.6847Z" fill="white"/>
<path d="M27.5377 36H21.8999V28.0526C21.8999 27.2744 21.7757 26.728 21.5274 26.4134C21.2956 26.0823 20.8817 25.9167 20.2856 25.9167C19.4081 25.9167 18.5388 26.1982 17.6778 26.7611V33.6406L19.9131 34.3857L19.0935 36H11.2454V34.6092L13.4557 32.7465V19.1613L11.2454 17.696V16.3052L16.1132 14.3184H17.6778V24.7991L20.4594 22.5639C20.9065 22.4314 21.4115 22.3652 21.9744 22.3652C23.2328 22.3652 24.2345 22.7129 24.9796 23.4083C25.7412 24.0871 26.122 25.0143 26.122 26.1899V33.6406L28.3572 34.3857L27.5377 36Z" fill="white"/>
<path d="M9.85049 36.0497C9.28754 36.1822 8.61697 36.2484 7.83879 36.2484C6.24929 36.2484 5.08201 35.8924 4.33693 35.1804C3.60842 34.4519 3.24416 33.3343 3.24416 31.8276V24.9978H0.56189V23.6815L5.90159 17.8699H7.46625V23.3586H11.9367V24.9978H7.46625V31.6538C7.46625 32.7962 8.11198 33.3674 9.40344 33.3674C9.73459 33.3674 10.0575 33.3178 10.372 33.2184C10.7032 33.1025 11.1171 32.9121 11.6138 32.6472L12.3589 34.0628L9.85049 36.0497Z" fill="white"/>
</svg>
